<svg width="25" height="22" viewBox="0 0 25 22" fill="none" xmlns="http://www.w3.org/2000/svg">
<path d="M23.3834 19.4352C23.3834 19.4568 23.3964 19.4698 23.4181 19.4698C23.6909 19.4698 23.9723 19.4698 24.2494 19.4654C24.5438 19.4654 24.8036 19.4352 24.9076 19.69C24.9422 19.772 24.9595 19.8627 24.9595 19.962C24.9595 20.3981 24.8383 20.7608 24.5958 21.0588C24.297 21.4301 23.8078 21.7453 23.3142 21.7453C16.1656 21.7367 9.06457 21.7324 2.01122 21.7453C1.8337 21.7453 1.67349 21.741 1.52628 21.7281C1.31411 21.7108 1.09329 21.6331 0.859478 21.4906C0.331235 21.171 0.0454636 20.6917 0.00216493 20.0484C-0.0151545 19.772 0.0714428 19.595 0.261957 19.5129C0.357214 19.4741 0.513089 19.4568 0.733912 19.4698C1.037 19.4827 1.30545 19.487 1.53927 19.4784C1.56092 19.4784 1.57824 19.4611 1.57824 19.4352L1.59989 8.84754C1.59989 8.82595 1.59123 8.81299 1.56958 8.80436C1.01968 8.61436 0.625666 8.25165 0.396183 7.71191C0.283606 7.44419 0.227318 7.11603 0.231648 6.73173C0.235978 6.4122 0.248967 6.11857 0.274947 5.84654C0.313915 5.47088 0.443811 5.13408 0.660305 4.83182C0.902777 4.49933 1.27948 4.06753 1.57824 3.67892C2.18009 2.89736 2.78194 2.12013 3.37946 1.35153C3.73018 0.902457 4.05925 0.462024 4.371 0.0345438C4.38832 0.0129539 4.40997 0 4.43595 0L20.5214 0.00431798C20.5474 0.00431798 20.569 0.0172719 20.5863 0.0388618C21.855 1.72287 23.0024 3.20826 24.0199 4.49933C24.3274 4.88795 24.5742 5.26361 24.6391 5.75155C24.6694 6.00199 24.6824 6.36038 24.6781 6.82672C24.6737 7.12034 24.6391 7.36215 24.5655 7.55646C24.3836 8.04871 24.0632 8.47187 23.5999 8.70504C23.535 8.73527 23.4657 8.75254 23.4051 8.78277C23.3921 8.7914 23.3834 8.80004 23.3834 8.81731V19.4352ZM4.10255 1.40766C3.22359 2.58647 2.3273 3.75232 1.4137 4.90954C1.11494 5.28952 0.937416 5.49679 0.881128 5.90699C0.833499 6.22652 0.81618 6.6281 0.837829 6.93467C0.859478 7.29306 1.01102 7.60828 1.28814 7.88463C1.48731 8.08325 1.72112 8.20416 1.98091 8.25165C2.1671 8.2862 2.32297 8.29052 2.44854 8.26461C3.01575 8.16098 3.38812 7.84145 3.56997 7.31034C3.58296 7.27147 3.59162 7.22829 3.59595 7.18511C3.60028 7.14193 3.60028 7.09875 3.60028 7.05989C3.60894 6.654 3.6176 6.22652 3.62193 5.78609C3.62193 5.6695 3.63925 5.5486 3.66956 5.41474C3.75183 5.2118 3.88173 4.95704 4.05925 4.65046C4.68275 3.57528 5.31058 2.49579 5.94274 1.40334L6.40171 0.643379C6.40604 0.634743 6.40604 0.617471 6.39305 0.613153C6.38872 0.613153 6.38439 0.608835 6.38006 0.608835C5.88645 0.613153 5.40151 0.613153 4.92522 0.604517C4.85161 0.604517 4.73038 0.595881 4.66543 0.677922C4.47925 0.928365 4.29306 1.17017 4.10255 1.40766ZM6.65284 1.38175L4.30605 5.44497C4.29306 5.50542 4.28007 5.56587 4.26708 5.62632C4.25409 5.69109 4.24543 5.75155 4.2411 5.80768C4.22811 6.09698 4.22378 6.39061 4.22811 6.69718C4.22811 6.8699 4.21945 7.07717 4.26708 7.22829C4.39698 7.63418 4.63512 7.93212 4.98151 8.13075C5.33223 8.32938 5.77388 8.36824 6.12027 8.24302C6.50129 8.10053 6.77841 7.82418 6.94294 7.41397C7.02088 7.21966 7.05985 7.07717 7.05985 6.98217C7.06418 6.61082 7.06851 6.23948 7.06418 5.86813C7.06418 5.75155 7.07717 5.5961 7.10315 5.40179C7.1551 5.21612 7.18974 5.08658 7.21572 5.01317C7.62273 3.82141 8.05139 2.61669 8.50169 1.39471L8.78313 0.656333C8.78746 0.643379 8.78313 0.630425 8.77014 0.626107C8.76581 0.626107 8.76581 0.626107 8.76148 0.626107L7.10315 0.630425C7.0815 0.630425 7.05985 0.643379 7.05119 0.660651L6.65284 1.38175ZM9.15983 1.39902L7.73098 5.40611C7.70067 5.5011 7.68335 5.61769 7.67902 5.74723C7.67469 6.04085 7.67036 6.33879 7.66603 6.63673C7.6617 6.92604 7.67902 7.1333 7.71799 7.26284C8.03407 8.29484 9.2421 8.72231 10.0475 7.91917C10.3376 7.63418 10.4458 7.24988 10.4588 6.85263C10.4718 6.46401 10.4761 6.07108 10.4761 5.66087C10.4761 5.57019 10.4934 5.47519 10.4978 5.38452L10.9221 1.38607L11.0347 0.660651C11.039 0.643379 11.026 0.626107 11.0087 0.621789H11.0044H9.46292C9.4456 0.621789 9.42828 0.634743 9.42395 0.652015L9.15983 1.39902ZM11.5456 1.38175L11.1213 5.38452C11.1039 5.72564 11.091 6.0538 11.0823 6.36902C11.078 6.63241 11.065 6.87854 11.1169 7.12898C11.2382 7.74645 11.7491 8.24734 12.3942 8.29052C12.7017 8.31211 12.9744 8.24734 13.2169 8.09621C13.5113 7.91485 13.7105 7.67305 13.8231 7.37942C13.8707 7.24988 13.8967 7.0858 13.9054 6.89149C13.9227 6.40356 13.9097 5.91563 13.8664 5.43202L13.5027 1.38607L13.4377 0.643379C13.4377 0.630425 13.4247 0.621789 13.4161 0.621789L11.6322 0.626107C11.6235 0.626107 11.6149 0.634743 11.6149 0.643379L11.5456 1.38175ZM14.1089 1.37312L14.4942 5.38884C14.5115 5.76018 14.5159 6.12289 14.5115 6.48128C14.5072 6.84399 14.5159 7.08148 14.5419 7.19807C14.6155 7.53919 14.8146 7.82849 15.1307 8.06166C15.5594 8.37688 16.1915 8.40278 16.6375 8.10916C17.0488 7.84145 17.3086 7.41397 17.3043 6.91308C17.3043 6.4381 17.2957 6.0279 17.287 5.68246C17.2827 5.58314 17.261 5.48383 17.222 5.38452L15.8884 1.3688L15.6416 0.664969C15.633 0.639061 15.607 0.621789 15.5767 0.621789H14.0396C14.0223 0.621789 14.0093 0.634743 14.0093 0.652015V0.656333L14.1089 1.37312ZM16.5336 1.38607L17.8888 5.41906C17.9062 5.55292 17.9191 5.6695 17.9191 5.75586C17.9278 6.17039 17.9365 6.58492 17.9495 6.99944C17.9538 7.15057 17.9884 7.29738 18.0577 7.43988C18.2006 7.74213 18.4084 8.00121 18.7029 8.15234C19.2311 8.42869 19.8676 8.34665 20.3006 7.92349C20.66 7.56941 20.7466 7.21534 20.7509 6.73173C20.7509 6.39061 20.7466 6.07539 20.7292 5.79041C20.7249 5.69541 20.6989 5.58314 20.6513 5.45792C20.5474 5.23771 20.4391 5.03476 20.3309 4.84477C19.8243 3.95095 19.3177 3.06145 18.8068 2.17626C18.6509 1.90423 18.4994 1.63651 18.3521 1.38175L17.9798 0.68224C17.9581 0.643379 17.9191 0.617471 17.8759 0.617471L16.2868 0.621789C16.2825 0.621789 16.2738 0.626107 16.2738 0.634743V0.639061L16.5336 1.38607ZM19.0492 1.39039C19.716 2.53033 20.3699 3.67892 21.015 4.8275C21.1319 5.03908 21.2272 5.23339 21.3008 5.41906C21.3181 5.55724 21.3311 5.6695 21.3311 5.76018C21.3441 6.1013 21.3441 6.4381 21.3354 6.77491C21.3181 7.37079 21.5952 7.88031 22.1408 8.14802C22.6387 8.39415 23.2535 8.30779 23.6476 7.90622C23.8857 7.66441 24.0502 7.28011 24.0676 6.93467C24.0805 6.61082 24.0719 6.2697 24.0416 5.90699C24.0286 5.75586 23.981 5.5961 23.8944 5.4277C23.8251 5.30248 23.7775 5.22043 23.7558 5.18589C23.6173 4.97863 23.3098 4.57706 22.8379 3.98549C22.6474 3.74369 22.4698 3.51915 22.3053 3.30325C21.816 2.65556 21.3268 2.01218 20.8418 1.37312C20.6556 1.14858 20.4824 0.932683 20.3222 0.72542C20.2703 0.660651 20.214 0.617471 20.1231 0.617471C19.6338 0.621789 19.1488 0.621789 18.6639 0.621789C18.6466 0.621789 18.6336 0.634743 18.6336 0.652015C18.6336 0.656333 18.6336 0.660651 18.6379 0.664969L19.0492 1.39039ZM3.1673 8.68345C2.85122 8.83458 2.53081 8.90799 2.2104 8.89503C2.18875 8.89503 2.17143 8.9123 2.17143 8.92958L2.1671 19.4439C2.1671 19.4698 2.18009 19.4827 2.20607 19.4827H3.18462L8.01675 19.4611C8.0384 19.4611 8.05572 19.4482 8.06438 19.4309C8.27654 18.9948 8.61427 18.7314 9.0689 18.6364C9.1555 18.6191 9.25076 18.6321 9.34169 18.6278C9.35468 18.6278 9.36767 18.6191 9.37199 18.6062C9.62313 18.0578 9.89158 17.5224 10.186 16.9912C10.2163 16.9394 10.2033 16.8185 10.1947 16.7624C10.0604 15.9679 9.91756 15.1691 9.779 14.3745C9.62746 13.5239 9.48457 12.6862 9.35035 11.8615L9.2854 11.4124C9.28107 11.3865 9.25942 11.3692 9.23344 11.3692C8.61427 11.3736 7.9951 11.3779 7.37593 11.3736C7.07717 11.3736 6.85634 11.0368 6.76542 10.782C6.7481 10.6784 6.73944 10.5704 6.73944 10.4581C6.74377 10.1991 6.73078 9.85362 7.01222 9.71977C7.07717 9.68954 7.17675 9.67227 7.30232 9.67659C7.80891 9.68522 8.33283 9.68522 8.87406 9.68091C9.1988 9.67659 9.52354 9.655 9.83962 9.67659C10.3376 9.71113 10.7056 9.93998 10.9394 10.3588C11.0347 10.5315 11.0823 10.7431 11.1169 10.9461C11.1689 11.2483 11.2208 11.5463 11.2728 11.8442C11.2771 11.8658 11.2945 11.8788 11.3161 11.8788C13.4334 11.8831 15.581 11.8831 17.7503 11.8788C18.2655 11.8788 18.5037 12.3667 18.3218 12.8158C18.0664 13.4462 17.8066 14.055 17.5684 14.6898C17.4342 15.0525 17.287 15.4238 17.1268 15.8124C17.0055 16.1061 16.841 16.3651 16.6289 16.5897C16.3604 16.8315 15.9577 17.0603 15.5897 17.0603C14.2474 17.0646 12.9008 17.069 11.5542 17.0776C11.5456 17.0776 11.5369 17.0733 11.5369 17.0603C11.2728 15.4368 10.9914 13.8175 10.6883 12.1983C10.619 11.8313 10.5584 11.4513 10.4978 11.0497C10.4458 10.7043 10.3592 10.4668 10.0258 10.3286C9.93055 10.2897 9.7357 10.2725 9.43694 10.2768C8.78313 10.2897 8.10767 10.2941 7.4149 10.2854C7.38892 10.2854 7.36727 10.307 7.36727 10.3329C7.36294 10.4106 7.36727 10.5013 7.38026 10.6006C7.40624 10.8209 7.54912 10.782 7.705 10.782C8.2419 10.7777 8.77447 10.7734 9.30272 10.769C9.56251 10.769 9.81364 10.9288 9.86127 11.2008C10.0648 12.4185 10.3116 13.8348 10.606 15.4497C10.6839 15.8772 10.7619 16.3608 10.8441 16.9049C10.8571 16.9826 10.8441 17.056 10.8138 17.1251C10.6666 17.4317 10.5237 17.7339 10.3809 18.0405C10.3765 18.0535 10.3809 18.0707 10.3938 18.0751C10.3982 18.0751 10.4025 18.0794 10.4068 18.0794L16.6851 18.0664L17.3909 18.0751C17.4082 18.0751 17.4212 18.088 17.4212 18.1053L17.4169 18.5975C17.4169 18.6191 17.4299 18.6364 17.4515 18.6407C17.9148 18.7271 18.3175 18.9991 18.4864 19.4395C18.495 19.4568 18.5123 19.4698 18.5297 19.4698L21.9979 19.4654L22.7166 19.4568C22.747 19.4568 22.7643 19.4395 22.7643 19.4093L22.7946 8.92526C22.7946 8.91231 22.7816 8.89935 22.7686 8.89935C22.4439 8.89503 22.0585 8.82163 21.7814 8.66186C21.4696 8.48051 21.2272 8.25165 21.0626 7.97099C21.0583 7.96235 21.0496 7.96235 21.0453 7.97099C20.8894 8.24734 20.6729 8.46755 20.3915 8.63595C19.8373 8.96412 19.2528 9.01162 18.6292 8.77413C18.2136 8.61437 17.8845 8.35097 17.6464 7.9753C17.6377 7.96235 17.629 7.96235 17.6204 7.9753C17.3909 8.32506 17.0921 8.58414 16.7154 8.7439C16.0833 9.01594 15.4728 8.97708 14.8882 8.63164C14.6025 8.45892 14.373 8.2387 14.2085 7.97099C14.1998 7.95803 14.1955 7.95803 14.1868 7.97099C13.992 8.3337 13.6239 8.61436 13.2516 8.76981C12.9874 8.87776 12.7017 8.92094 12.4029 8.89935C11.7491 8.85185 11.2122 8.54528 10.8009 7.9753C10.7965 7.96667 10.7835 7.96667 10.7792 7.97099L10.7749 7.9753C10.3722 8.63164 9.62313 9.02025 8.85674 8.91662C8.23324 8.83458 7.73531 8.51937 7.3716 7.97099C7.36727 7.96235 7.35428 7.96235 7.34995 7.96667L7.34562 7.97099C6.89964 8.70072 6.1246 9.01594 5.29326 8.87776C4.76069 8.78708 4.25842 8.45028 3.93368 7.98394C3.92502 7.97099 3.91203 7.97099 3.89904 7.97962C3.89471 7.97962 3.89471 7.98394 3.89038 7.98826C3.68688 8.29483 3.44874 8.51937 3.1673 8.68345ZM15.7672 12.5265C15.7672 12.5178 15.7629 12.5092 15.7542 12.5092C15.7542 12.5092 15.7542 12.5092 15.7499 12.5092L13.9443 12.5221C13.9357 12.5221 13.9313 12.5308 13.9313 12.5351L13.94 14.2839C13.94 14.2925 13.9487 14.2968 13.953 14.2968L15.3732 14.2925C15.3818 14.2925 15.3862 14.2882 15.3862 14.2796L15.7672 12.5265ZM13.3078 12.5308C13.3078 12.5221 13.3035 12.5178 13.2949 12.5178L11.4287 12.5221C11.42 12.5221 11.4157 12.5265 11.4157 12.5351C11.4157 12.5351 11.4157 12.5351 11.4157 12.5394L11.7274 14.2882C11.7274 14.2968 11.7361 14.3011 11.7404 14.3011H13.2992C13.3078 14.3011 13.3122 14.2968 13.3122 14.2882L13.3078 12.5308ZM17.733 12.5696C17.7416 12.548 17.7286 12.5265 17.7113 12.5178C17.707 12.5178 17.7027 12.5135 17.6983 12.5135H16.447C16.4297 12.5135 16.4124 12.5265 16.408 12.5437L16.04 14.2234C16.0357 14.245 16.0486 14.2666 16.0703 14.2709C16.0746 14.2709 16.0746 14.2709 16.079 14.2709H17.0402C17.0575 14.2709 17.0705 14.2623 17.0792 14.245L17.733 12.5696ZM15.2563 14.897C15.2563 14.8884 15.252 14.8841 15.2433 14.8798C15.2433 14.8798 15.2433 14.8798 15.239 14.8798L13.9487 14.8841C13.94 14.8841 13.9357 14.8884 13.9357 14.897L13.9443 16.4558C13.9443 16.4644 13.9487 16.4688 13.9573 16.4688L14.9922 16.4731C15.0008 16.4731 15.0052 16.4688 15.0052 16.4601L15.2563 14.897ZM15.6806 16.4644C15.8711 16.4083 16.066 16.2745 16.1915 16.1449C16.2825 16.0499 16.3647 15.929 16.4383 15.7736C16.5769 15.4843 16.7068 15.1993 16.8194 14.9186C16.8237 14.9057 16.8194 14.8884 16.8064 14.8841C16.802 14.8841 16.802 14.8841 16.7977 14.8841H15.9404C15.9317 14.8841 15.9231 14.8927 15.9188 14.9013C15.8148 15.4065 15.7196 15.9204 15.646 16.4385C15.6416 16.4601 15.6546 16.4731 15.6806 16.4644ZM13.3122 14.9316C13.3122 14.91 13.2949 14.897 13.2775 14.897L11.853 14.9013C11.8314 14.9013 11.8184 14.9186 11.8184 14.9359V14.9402L12.1041 16.4385C12.1085 16.4558 12.1215 16.4688 12.1388 16.4688L13.2819 16.4731C13.3035 16.4731 13.3165 16.4558 13.3165 16.4385L13.3122 14.9316ZM10.4458 19.4611C10.4545 19.4784 10.4675 19.4913 10.4891 19.4913H16.0486C16.0616 19.4913 16.0703 19.4827 16.0746 19.4741C16.2262 19.133 16.4557 18.9646 16.7501 18.7702C16.7674 18.7573 16.7761 18.7314 16.7631 18.7141C16.7587 18.7055 16.7501 18.7012 16.7371 18.6968C16.7068 18.6882 16.6808 18.6839 16.6548 18.6839C14.1998 18.6796 12.0479 18.6839 10.199 18.6968C10.1341 18.6968 9.96952 18.6839 9.95653 18.7746C9.9522 18.8005 9.96086 18.8264 9.98251 18.848C10.1817 19.025 10.3419 19.1977 10.4458 19.4611ZM9.91756 19.9188C9.91756 19.5561 9.62313 19.2582 9.25509 19.2582C8.89138 19.2582 8.59262 19.5518 8.59262 19.9188C8.59262 20.2815 8.88705 20.5795 9.25509 20.5795C9.6188 20.5752 9.91756 20.2815 9.91756 19.9188ZM17.8629 19.595C17.694 19.2798 17.2957 19.1632 16.9709 19.3359C16.6462 19.5086 16.5206 19.9059 16.6895 20.2211C16.8583 20.5363 17.2567 20.6529 17.5814 20.4802C17.9062 20.3031 18.0317 19.9102 17.8629 19.595ZM9.90457 21.1063C12.3336 21.1192 14.6068 21.1192 16.7328 21.1106C16.7458 21.1106 16.7587 21.1106 16.7717 21.1063C16.8064 21.0976 16.8064 21.089 16.7761 21.0717C16.3691 20.8731 16.0876 20.5752 16.014 20.1045C16.0097 20.0872 15.9967 20.0743 15.9794 20.0743L10.5757 20.0829C10.5584 20.0829 10.5454 20.0959 10.5411 20.1088C10.4934 20.3031 10.4155 20.4888 10.3072 20.6658C10.1947 20.8472 10.0388 20.9551 9.85694 21.0588C9.8223 21.0804 9.8223 21.0933 9.8656 21.102C9.87859 21.1063 9.89158 21.1063 9.90457 21.1063ZM2.0372 21.1063H8.75715C8.84375 21.1063 8.84375 21.089 8.76581 21.0588C8.33716 20.8861 8.07736 20.5708 7.98644 20.1088C7.98644 20.1002 7.97778 20.0915 7.96479 20.0915L3.20194 20.0959H0.629996C0.612676 20.0959 0.604016 20.1088 0.604016 20.1218V20.1261C0.699273 20.5363 0.915767 20.8515 1.27948 21.0242C1.3704 21.0674 1.44834 21.089 1.50896 21.089C1.6605 21.0933 1.83803 21.0976 2.0372 21.1063ZM18.5297 20.1218C18.4431 20.5708 18.1313 20.912 17.6983 21.089C17.6594 21.1063 17.6594 21.1149 17.7027 21.1149C19.3567 21.1192 21.067 21.1192 22.8335 21.1149C23.1929 21.1149 23.4224 21.102 23.5263 21.0804C23.942 20.9897 24.2711 20.5579 24.349 20.1347C24.3533 20.1175 24.3403 20.0959 24.323 20.0959H24.3187L18.56 20.1045C18.5383 20.0959 18.5297 20.1045 18.5297 20.1218Z" fill="#292A50"/>
<path d="M6.65148 1.38184L8.50466 1.39479C8.05435 2.61678 7.62569 3.82149 7.21869 5.01325C7.19271 5.08234 7.15807 5.21188 7.10611 5.40187C7.06281 5.39755 7.01951 5.39755 6.97622 5.38892C6.93292 5.3846 6.88962 5.3846 6.84632 5.3846C6.15787 5.3846 5.49107 5.38892 4.84592 5.39324C4.72901 5.39324 4.60345 5.40187 4.46489 5.41051C4.43458 5.41483 4.40427 5.42778 4.3783 5.45369C4.36098 5.47096 4.335 5.46664 4.30469 5.44505L6.65148 1.38184Z" fill="#FDE791"/>
<path d="M10.9177 1.38574L10.4933 5.38419C9.63603 5.37555 8.77872 5.37124 7.92574 5.37555C7.89543 5.37555 7.86512 5.37987 7.82615 5.38851C7.79151 5.39714 7.7612 5.40146 7.72656 5.40578L9.15542 1.3987L10.9177 1.38574Z" fill="#6622CF"/>
<path d="M11.5493 1.38184L13.5064 1.38615L13.8701 5.43642C13.8355 5.4321 13.8009 5.42346 13.7619 5.41051C13.6493 5.36733 13.5151 5.3846 13.3982 5.3846C12.6361 5.37596 11.8784 5.38028 11.125 5.38892L11.5493 1.38184Z" fill="#FDE791"/>
<path d="M14.1094 1.37297L15.8933 1.36865L17.2269 5.38437C17.1533 5.40164 17.071 5.40596 16.9844 5.39733C16.8502 5.38437 16.7679 5.38005 16.7419 5.38005C15.9929 5.37574 15.2481 5.37574 14.4991 5.38437L14.1094 1.37297Z" fill="#6622CF"/>
<path d="M18.3619 1.38184C18.5048 1.6366 18.6564 1.90431 18.8166 2.17634C19.3275 3.06585 19.8341 3.95535 20.3407 4.84485C20.4489 5.03484 20.5528 5.23779 20.6611 5.45801C20.5096 5.42778 20.4056 5.41051 20.3493 5.41051C19.5353 5.40187 18.7213 5.40619 17.903 5.41483L16.5391 1.38615L18.3619 1.38184Z" fill="#FDE791"/>
<path d="M20.8482 1.37305C21.3375 2.01211 21.8224 2.65549 22.3117 3.30318C22.4719 3.51908 22.6494 3.74362 22.8443 3.98542C23.3162 4.57699 23.6193 4.97424 23.7622 5.18582C23.7839 5.22036 23.8315 5.30241 23.9008 5.42763C23.8661 5.43626 23.8272 5.43195 23.7839 5.42331C23.7319 5.41036 23.6929 5.40604 23.6713 5.40604C23.2989 5.39308 22.9352 5.38877 22.5758 5.39308C22.4373 5.14696 22.2944 4.90947 22.1558 4.68494C21.6492 3.86452 21.16 3.02683 20.6707 2.21937C20.5278 1.9862 20.3719 1.75303 20.2031 1.51986C20.1814 1.48963 20.1554 1.46372 20.1251 1.4335C20.0991 1.43782 20.0905 1.42054 20.0948 1.38168L20.8482 1.37305Z" fill="#6622CF"/>
<path d="M4.76886 1.39893C4.40515 2.05958 4.1367 2.5216 3.96783 2.785C3.63443 3.30747 3.30103 3.82563 2.96763 4.34379C2.79877 4.60718 2.58661 4.95694 2.33547 5.39737L2.10599 5.40169C2.06702 5.40169 2.02805 5.43192 2.01939 5.47078C1.98043 5.61327 1.96311 5.75145 1.96311 5.88962C1.96311 6.67549 1.96744 7.46568 1.98042 8.25587C1.72063 8.21269 1.48682 8.08747 1.28765 7.88885C1.01053 7.6125 0.86332 7.29728 0.83734 6.93889C0.815691 6.63231 0.83301 6.23074 0.880639 5.91121C0.941257 5.501 1.11445 5.29374 1.41321 4.91376C2.32681 3.75654 3.2231 2.59069 4.10206 1.41188L4.76886 1.39893Z" fill="#6622CF"/>
<path d="M19.0469 1.39014H20.0904C20.086 1.429 20.0947 1.44627 20.1207 1.44195C20.151 1.46786 20.177 1.49809 20.1986 1.52831C20.3675 1.76148 20.5234 1.99465 20.6662 2.22782C21.1555 3.0396 21.6448 3.87729 22.1514 4.69339C22.2943 4.92224 22.4328 5.15973 22.5714 5.40154C22.1211 5.38427 21.7011 5.38858 21.2984 5.41881C21.2248 5.23745 21.1295 5.03883 21.0126 4.82725C20.3632 3.67435 19.7093 2.53008 19.0469 1.39014Z" fill="#6622CF"/>
<path d="M4.76932 1.39893L5.93839 1.40756C5.30623 2.50001 4.6784 3.5795 4.05489 4.65468C3.87737 4.96126 3.74747 5.21602 3.66521 5.41896L2.33594 5.39737C2.58707 4.96126 2.79923 4.60718 2.9681 4.34379C3.3015 3.82563 3.6349 3.30315 3.9683 2.785C4.13716 2.5216 4.40561 2.05958 4.76932 1.39893Z" fill="#6622CF"/>
<path d="M13.8669 5.43186C13.9102 5.91547 13.9232 6.4034 13.9058 6.89133C13.8972 7.08564 13.8712 7.24973 13.8236 7.37927C13.7153 7.67721 13.5118 7.91469 13.2174 8.09605C12.9749 8.24718 12.6978 8.31195 12.3947 8.29036C11.7496 8.24718 11.2387 7.75061 11.1174 7.12882C11.0655 6.87406 11.0784 6.62794 11.0828 6.36886C11.0871 6.05365 11.1001 5.72116 11.1217 5.38436C11.8795 5.37141 12.6372 5.37141 13.3949 5.38004C13.5118 5.38004 13.6461 5.36277 13.7586 5.40595C13.7976 5.4189 13.8322 5.42754 13.8669 5.43186Z" fill="#FDC959"/>
<path d="M17.2278 5.3841C17.2668 5.4791 17.2884 5.57841 17.2928 5.68204C17.3014 6.02748 17.3058 6.43769 17.3101 6.91267C17.3144 7.41355 17.0546 7.83671 16.6433 8.10875C16.1973 8.40237 15.5608 8.37214 15.1365 8.06125C14.8204 7.82808 14.6212 7.53877 14.5476 7.19765C14.5216 7.08107 14.513 6.84358 14.5173 6.48087C14.5217 6.12248 14.5173 5.75977 14.5 5.38842C15.2491 5.37978 15.9981 5.37547 16.7429 5.3841C16.7689 5.3841 16.8511 5.38842 16.9853 5.40137C17.0719 5.40569 17.1542 5.40137 17.2278 5.3841Z" fill="#6622CF"/>
<path d="M7.10221 5.40155C7.07623 5.59586 7.05891 5.75131 7.06324 5.86789C7.06324 6.23924 7.06324 6.61058 7.05891 6.98193C7.05891 7.07692 7.01994 7.21942 6.942 7.41373C6.77747 7.82825 6.50036 8.1046 6.11933 8.24278C5.77294 8.368 5.33129 8.33346 4.98058 8.13051C4.63419 7.93188 4.39171 7.62963 4.26615 7.22805C4.21852 7.07692 4.22718 6.87398 4.22718 6.69694C4.22718 6.39468 4.23151 6.09674 4.24017 5.80744C4.2445 5.75131 4.24883 5.69085 4.26615 5.62608C4.27914 5.56995 4.29213 5.5095 4.30512 5.44473C4.33975 5.46632 4.36573 5.47064 4.37872 5.45336C4.4047 5.42746 4.43501 5.4145 4.46532 5.41019C4.59955 5.40155 4.72511 5.39291 4.84635 5.39291C5.4915 5.3886 6.1583 5.38428 6.84675 5.38428C6.89005 5.38428 6.93334 5.38428 6.97664 5.3886C7.01561 5.39291 7.05891 5.39723 7.10221 5.40155Z" fill="#FDC959"/>
<path d="M10.4964 5.38435C10.4921 5.47503 10.4748 5.57003 10.4748 5.6607C10.4791 6.06659 10.4705 6.46385 10.4575 6.85247C10.4445 7.24972 10.3362 7.63402 10.0461 7.91901C9.23645 8.72215 8.02842 8.29899 7.71667 7.26267C7.6777 7.13313 7.66038 6.92587 7.66471 6.63657C7.66904 6.33863 7.67337 6.04069 7.6777 5.74706C7.68203 5.61321 7.69502 5.50094 7.72966 5.40594C7.75997 5.40163 7.79461 5.39731 7.82925 5.38867C7.86389 5.38004 7.89852 5.37572 7.92883 5.37572C8.78182 5.3714 9.63913 5.37572 10.4964 5.38435Z" fill="#6622CF"/>
<path d="M2.33764 5.39746L3.6669 5.41905C3.6366 5.54859 3.61928 5.67381 3.61928 5.7904C3.61495 6.23083 3.61062 6.65831 3.59763 7.0642C3.59763 7.10306 3.5933 7.14624 3.5933 7.18942C3.58897 7.2326 3.58031 7.27146 3.56732 7.31464C3.38546 7.84575 3.0131 8.16528 2.44588 8.26892C2.32032 8.29051 2.16444 8.28619 1.97826 8.25596C1.96527 7.46577 1.96094 6.6799 1.96094 5.88971C1.96094 5.75585 1.98259 5.61336 2.01723 5.47087C2.03022 5.432 2.06485 5.40178 2.10382 5.40178L2.33764 5.39746Z" fill="#6622CF"/>
<path d="M22.5733 5.39735C22.9327 5.39303 23.3008 5.39735 23.6688 5.4103C23.6904 5.4103 23.7294 5.41894 23.7814 5.42758C23.8203 5.43621 23.8593 5.43621 23.8983 5.43189C23.9849 5.6003 24.0325 5.76006 24.0455 5.91119C24.0758 6.26958 24.0845 6.6107 24.0715 6.93887C24.0585 7.28431 23.8896 7.67292 23.6515 7.91041C23.2575 8.31199 22.6426 8.39834 22.1447 8.15222C21.5991 7.88451 21.3263 7.37498 21.3393 6.7791C21.348 6.4423 21.348 6.1055 21.335 5.76438C21.3307 5.6737 21.322 5.55712 21.3047 5.42326C21.703 5.3844 22.1274 5.38008 22.5733 5.39735Z" fill="#6622CF"/>
<path d="M20.6453 5.45789C20.6929 5.58311 20.7189 5.69106 20.7232 5.79037C20.7362 6.07536 20.7449 6.38626 20.7449 6.73169C20.7405 7.21962 20.6539 7.56938 20.2945 7.92345C19.8659 8.35093 19.2294 8.42866 18.6968 8.15231C18.4024 8.00118 18.1946 7.7421 18.0517 7.43984C17.9867 7.29735 17.9478 7.15054 17.9434 6.99941C17.9304 6.58488 17.9218 6.17036 17.9131 5.75583C17.9131 5.66515 17.9001 5.55289 17.8828 5.41903C18.7012 5.40607 19.5152 5.40607 20.3292 5.41471C20.3855 5.41471 20.4894 5.42766 20.6453 5.45789Z" fill="#FDC959"/>
<path d="M21.986 19.4828C21.9773 19.4569 21.973 19.4353 21.9643 19.4137C21.9557 19.3878 21.9514 19.3662 21.9514 19.3403C21.9514 18.5328 21.9643 17.721 21.9643 16.9222C21.96 14.5819 21.9557 12.1724 21.9514 9.68959C21.9514 9.54278 21.9817 9.3787 21.8474 9.29665C21.527 9.10666 21.2889 8.86054 21.1243 8.55828C21.107 8.52806 21.0724 8.51942 21.0464 8.53669C21.0378 8.54101 21.0334 8.54533 21.0291 8.55396C20.6524 9.05917 20.0332 9.52119 19.3708 9.52551C18.6044 9.52983 18.0675 9.09371 17.6648 8.47192C17.6561 8.45465 17.6345 8.45033 17.6172 8.46328C17.6128 8.4676 17.6085 8.4676 17.6085 8.47192C17.5522 8.55396 17.5002 8.63169 17.444 8.70509C16.9633 9.35279 16.2446 9.66368 15.4479 9.44347C14.9283 9.30097 14.5256 8.99008 14.2399 8.51078C14.2312 8.49351 14.2096 8.48919 14.1922 8.49783C14.1879 8.50215 14.1836 8.50646 14.1792 8.51078C13.9974 8.79145 13.7419 9.04189 13.4129 9.24916C13.1487 9.41756 12.8456 9.48665 12.5296 9.48665C11.8195 9.48233 11.2609 9.12825 10.8756 8.54964C10.8582 8.52374 10.8366 8.51078 10.8063 8.50646C10.7803 8.50215 10.763 8.51078 10.7457 8.53237C10.4382 8.98144 9.93597 9.42619 9.36876 9.48665C9.01804 9.52551 8.66299 9.51687 8.35557 9.3312C8.00485 9.1153 7.70176 8.86486 7.4463 8.57987C7.43331 8.56692 7.41166 8.56692 7.39867 8.57555L7.39434 8.57987C7.16919 8.86054 6.88342 9.09803 6.52837 9.29234C5.62776 9.7889 4.49766 9.37438 3.99107 8.53669C3.96509 8.49351 3.93478 8.48919 3.90447 8.53237C3.71829 8.80009 3.47581 9.02462 3.17705 9.20598L3.16406 8.6835C3.4455 8.52374 3.67932 8.29488 3.87849 8.00558C3.88715 7.99263 3.90014 7.99263 3.91313 7.99694C3.91746 7.99694 3.91746 8.00126 3.92179 8.00558C4.24653 8.47192 4.74879 8.81304 5.28137 8.8994C6.1127 9.03758 6.88342 8.72236 7.33372 7.99263C7.33805 7.98399 7.34671 7.98399 7.35537 7.98831C7.3597 7.98831 7.3597 7.99263 7.3597 7.99263C7.72341 8.54101 8.22135 8.8519 8.84485 8.93826C9.61123 9.03758 10.3646 8.65328 10.763 7.99694C10.7673 7.98831 10.776 7.98831 10.7846 7.99263L10.789 7.99694C11.2003 8.56692 11.7372 8.87349 12.391 8.92099C12.6941 8.94258 12.9755 8.8994 13.2397 8.79145C13.612 8.64032 13.9801 8.35534 14.1749 7.99263C14.1836 7.97967 14.1879 7.97967 14.1966 7.99263C14.3611 8.26466 14.5906 8.48488 14.8764 8.65328C15.4609 8.99871 16.0714 9.03758 16.7036 8.76554C17.0759 8.60578 17.379 8.3467 17.6085 7.99694C17.6172 7.98399 17.6258 7.98399 17.6345 7.99694C17.8769 8.36829 18.2017 8.636 18.6174 8.79577C19.2409 9.03326 19.8254 8.99008 20.3796 8.65759C20.6567 8.49351 20.8732 8.26898 21.0334 7.99263C21.0378 7.98399 21.0421 7.98399 21.0507 7.99263C21.2196 8.27329 21.4577 8.50646 21.7695 8.6835C22.0466 8.84327 22.432 8.91667 22.7567 8.92099C22.7697 8.92099 22.7827 8.93394 22.7827 8.9469L22.7524 19.4309C22.7524 19.4612 22.7351 19.4784 22.7048 19.4784L21.986 19.4828Z" fill="#7BC4D5"/>
<path d="M21.9851 19.4827L18.5169 19.487C18.4953 19.487 18.478 19.4741 18.4736 19.4568C18.3004 19.0164 17.8977 18.7444 17.4388 18.658C17.4171 18.6537 17.4041 18.6364 17.4041 18.6148L17.4085 18.1226C17.4085 18.1053 17.3955 18.0923 17.3782 18.0923L16.6724 18.0837C16.6724 17.6346 16.6637 17.1856 16.6551 16.7451C16.6551 16.7106 16.6594 16.6717 16.6681 16.6372C16.6724 16.6156 16.6594 16.607 16.6248 16.6113C16.8369 16.3867 17.0058 16.1277 17.1227 15.834C17.2829 15.4497 17.4301 15.0741 17.5644 14.7114C17.8025 14.0766 18.0623 13.4635 18.3177 12.8374C18.4996 12.3883 18.2615 11.9004 17.7462 11.9004C15.5726 11.9047 13.4293 11.9047 11.312 11.9004C11.2904 11.9004 11.2731 11.8874 11.2687 11.8658C11.2168 11.5679 11.1648 11.2699 11.1129 10.9677C11.0782 10.7647 11.0306 10.5532 10.9353 10.3804C10.7015 9.96159 10.3335 9.73705 9.83554 9.69819C9.51513 9.6766 9.19472 9.69819 8.86998 9.70251C8.32875 9.70683 7.80483 9.70683 7.29824 9.69819C7.17267 9.69819 7.07308 9.71115 7.00814 9.74137C6.72669 9.87091 6.73968 10.2207 6.73535 10.4797C6.73535 10.5877 6.74401 10.6956 6.76133 10.8036C6.70505 10.9806 6.70505 11.1663 6.76133 11.3563C6.8436 11.6499 7.06009 11.8745 7.37617 11.8745C8.02998 11.8745 8.68812 11.8788 9.34626 11.8788C9.48049 12.7035 9.62338 13.5412 9.77492 14.3918C9.91781 15.1863 10.0564 15.9852 10.1906 16.7797C10.1992 16.8358 10.2122 16.9567 10.1819 17.0085C9.8875 17.5396 9.61472 18.0751 9.36791 18.6235C9.36358 18.6364 9.35059 18.645 9.3376 18.645C9.24668 18.6494 9.15142 18.6364 9.06482 18.6537C8.60586 18.7444 8.27246 19.0078 8.06029 19.4482C8.05163 19.4655 8.03431 19.4784 8.01267 19.4784L3.18053 19.5L3.17188 9.21026C3.47064 9.02891 3.71311 8.80437 3.89929 8.53666C3.9296 8.49348 3.95558 8.49348 3.98589 8.54097C4.49248 9.37866 5.62258 9.79751 6.52319 9.29662C6.87824 9.10231 7.16401 8.86482 7.38916 8.58415C7.40215 8.5712 7.4238 8.56688 7.43679 8.57984L7.44112 8.58415C7.69658 8.87346 7.99968 9.1239 8.35039 9.33548C8.65781 9.52547 9.01286 9.52979 9.36358 9.49093C9.9308 9.43048 10.4374 8.98573 10.7405 8.53666C10.7535 8.51507 10.7751 8.50643 10.8011 8.51075C10.8314 8.51507 10.8531 8.53234 10.8704 8.55393C11.2557 9.13254 11.8143 9.49093 12.5244 9.49093C12.8405 9.49093 13.1436 9.42616 13.4077 9.25344C13.7367 9.04186 13.9922 8.79574 14.1741 8.51507C14.1827 8.4978 14.2087 8.49348 14.2217 8.50643C14.226 8.51075 14.2304 8.51507 14.2347 8.51938C14.5205 8.99868 14.9231 9.30958 15.4427 9.45207C16.2394 9.66797 16.9582 9.36139 17.4388 8.71369C17.4951 8.64029 17.547 8.56256 17.6033 8.48052C17.612 8.46325 17.6336 8.45893 17.6509 8.47189C17.6553 8.47621 17.6596 8.47621 17.6596 8.48052C18.0666 9.10231 18.5992 9.53411 19.3656 9.53411C20.028 9.52979 20.6472 9.06777 21.0239 8.56256C21.0412 8.53666 21.0802 8.53234 21.1062 8.54961C21.1148 8.55393 21.1192 8.56256 21.1235 8.56688C21.2837 8.86914 21.5262 9.11527 21.8466 9.30526C21.9808 9.3873 21.9505 9.55138 21.9505 9.69819C21.9548 12.181 21.9592 14.5905 21.9635 16.9308C21.9635 17.7296 21.9505 18.5414 21.9505 19.3489C21.9505 19.3748 21.9548 19.4007 21.9635 19.4223C21.9722 19.4352 21.9765 19.4568 21.9851 19.4827Z" fill="#50A5F1"/>
<path d="M3.16774 8.68311L3.18073 9.19694L3.18939 19.4867H2.21084C2.18486 19.4867 2.17188 19.4737 2.17188 19.4478L2.1762 8.93355C2.1762 8.91196 2.19352 8.89469 2.21517 8.89469C2.53125 8.90332 2.85166 8.83423 3.16774 8.68311Z" fill="#D6E1E4"/>
<path d="M16.6191 16.611C16.6537 16.611 16.6667 16.6196 16.6624 16.6369C16.6537 16.6714 16.6494 16.7103 16.6494 16.7448C16.6581 17.1896 16.6667 17.6343 16.6667 18.0834L10.3884 18.0963C10.3754 18.0963 10.3624 18.0834 10.3624 18.0704C10.3624 18.0661 10.3624 18.0618 10.3668 18.0575C10.5097 17.7552 10.6569 17.4486 10.7998 17.1421C10.8301 17.0773 10.8431 17.0039 10.8301 16.9218C10.7478 16.3778 10.6699 15.8942 10.5919 15.4667C10.2975 13.8518 10.0507 12.4355 9.84719 11.2178C9.80389 10.9458 9.55276 10.786 9.28864 10.786C8.76039 10.7903 8.22782 10.7946 7.69092 10.799C7.53504 10.799 7.39648 10.8378 7.36618 10.6176C7.35319 10.514 7.34886 10.4276 7.35319 10.3499C7.35319 10.324 7.37484 10.3024 7.40081 10.3024C8.09359 10.311 8.76905 10.3067 9.42286 10.2938C9.71729 10.2894 9.91647 10.3024 10.0117 10.3456C10.3451 10.4837 10.4317 10.7212 10.4837 11.0667C10.5443 11.4639 10.6049 11.8482 10.6742 12.2153C10.9773 13.8345 11.2587 15.4537 11.5228 17.0773C11.5228 17.0859 11.5315 17.0946 11.5402 17.0946C12.8868 17.0859 14.2333 17.0773 15.5756 17.0773C15.948 17.0816 16.3506 16.8484 16.6191 16.611Z" fill="#D6E1E4"/>
<path d="M6.76878 10.7949C6.85971 11.0454 7.08053 11.3865 7.37929 11.3865C7.99846 11.3865 8.61763 11.3865 9.2368 11.3822C9.26278 11.3822 9.28443 11.3994 9.28876 11.4253L9.35371 11.8744C8.69557 11.8744 8.03743 11.8701 7.38362 11.8701C7.06321 11.8701 6.85105 11.6456 6.76878 11.3519C6.71249 11.1576 6.71249 10.972 6.76878 10.7949Z" fill="#7BC4D5"/>
<path d="M15.7656 12.5261L15.3845 14.2792C15.3845 14.2878 15.3759 14.2921 15.3715 14.2921L13.9513 14.2964C13.9427 14.2964 13.9383 14.2878 13.9383 14.2835L13.9297 12.5347C13.9297 12.5261 13.9383 12.5217 13.9427 12.5217L15.7482 12.5088C15.7612 12.5088 15.7656 12.5131 15.7656 12.5261C15.7656 12.5217 15.7656 12.5217 15.7656 12.5261Z" fill="#FDE791"/>
<path d="M13.3097 12.5305L13.3184 14.2836C13.3184 14.2922 13.314 14.2965 13.3054 14.2965H11.7466C11.738 14.2965 11.7336 14.2922 11.7336 14.2836L11.4219 12.5348C11.4219 12.5261 11.4262 12.5218 11.4349 12.5175C11.4349 12.5175 11.4349 12.5175 11.4392 12.5175L13.3054 12.5132C13.301 12.5175 13.3097 12.5261 13.3097 12.5305Z" fill="#FDE791"/>
<path d="M17.732 12.5694L17.0782 14.2491C17.0739 14.2664 17.0566 14.275 17.0393 14.275H16.078C16.0564 14.275 16.0391 14.2577 16.0391 14.2361C16.0391 14.2318 16.0391 14.2318 16.0391 14.2275L16.4071 12.5478C16.4114 12.5305 16.4288 12.5176 16.4461 12.5176H17.6974C17.7191 12.5176 17.7364 12.5349 17.7364 12.5564C17.7364 12.5608 17.7364 12.5651 17.732 12.5694Z" fill="#FDE791"/>
<path d="M15.2538 14.8969L15.0026 16.4643C15.0026 16.473 14.994 16.4773 14.9897 16.4773L13.9548 16.473C13.9462 16.473 13.9418 16.4686 13.9418 16.46L13.9375 14.9012C13.9375 14.8926 13.9418 14.8883 13.9505 14.8883L15.2408 14.8839C15.2494 14.8796 15.2538 14.8839 15.2538 14.8969Z" fill="#FDE791"/>
<path d="M16.1948 16.1446C16.0693 16.2741 15.8744 16.408 15.6839 16.4641C15.6579 16.4727 15.6449 16.4641 15.6493 16.4339C15.7272 15.9157 15.8181 15.4019 15.922 14.8967C15.922 14.888 15.9307 14.8794 15.9437 14.8794H16.801C16.814 14.8794 16.827 14.8923 16.827 14.9053C16.827 14.9096 16.827 14.9139 16.827 14.9139C16.7101 15.1946 16.5845 15.4796 16.446 15.7689C16.368 15.9243 16.2857 16.0496 16.1948 16.1446Z" fill="#FDE791"/>
<path d="M13.3184 14.9319L13.3271 16.4345C13.3271 16.4561 13.3098 16.4691 13.2924 16.4691L12.1494 16.4647C12.132 16.4647 12.1191 16.4518 12.1147 16.4345L11.829 14.9362C11.8246 14.9146 11.8376 14.8973 11.8593 14.893H11.8636L13.2881 14.8887C13.3011 14.8973 13.3184 14.9146 13.3184 14.9319Z" fill="#FDE791"/>
<path d="M10.4478 19.4608C10.3439 19.1974 10.1837 19.0204 9.98019 18.839C9.95854 18.8218 9.94988 18.7959 9.95421 18.7656C9.9672 18.675 10.1317 18.6922 10.1967 18.6879C12.0455 18.675 14.1975 18.6706 16.6525 18.675C16.6785 18.675 16.7088 18.6793 16.7348 18.6879C16.7564 18.6922 16.7694 18.7181 16.7651 18.7397C16.7608 18.7484 16.7564 18.757 16.7478 18.7656C16.4533 18.9599 16.2239 19.1283 16.0723 19.4695C16.068 19.4781 16.0593 19.4867 16.0463 19.4867H10.4868C10.4738 19.4911 10.4565 19.4781 10.4478 19.4608Z" fill="#50A5F1"/>
<path d="M9.25622 20.5791C9.62209 20.5791 9.91869 20.2833 9.91869 19.9185C9.91869 19.5536 9.62209 19.2578 9.25622 19.2578C8.89035 19.2578 8.59375 19.5536 8.59375 19.9185C8.59375 20.2833 8.89035 20.5791 9.25622 20.5791Z" fill="#D6E1E4"/>
<path d="M16.9737 19.3358C17.2984 19.1631 17.6968 19.2797 17.8656 19.5949C18.0345 19.9101 17.9089 20.3073 17.5842 20.4801C17.2595 20.6528 16.8611 20.5362 16.6922 20.221C16.5234 19.9058 16.6489 19.5085 16.9737 19.3358Z" fill="#D6E1E4"/>
<path d="M9.90705 21.1063C9.89406 21.1063 9.88107 21.1063 9.86808 21.102C9.82912 21.0933 9.82479 21.0804 9.85943 21.0588C10.0369 20.9552 10.1972 20.8472 10.3097 20.6659C10.418 20.4888 10.4959 20.3031 10.5435 20.1088C10.5479 20.0916 10.5609 20.0829 10.5782 20.0829L15.9819 20.0786C15.9992 20.0786 16.0165 20.0916 16.0165 20.1088C16.0858 20.5795 16.3672 20.8774 16.7786 21.0761C16.8089 21.089 16.8089 21.102 16.7742 21.1106C16.7612 21.1149 16.7482 21.1149 16.7353 21.1149C14.6093 21.1192 12.3318 21.1192 9.90705 21.1063Z" fill="#B2B4B3"/>
<path d="M3.20492 20.0956C3.06636 20.2727 2.91914 20.4281 2.75894 20.5663C2.5208 20.7779 2.27832 20.9592 2.03585 21.1017C1.83668 21.0931 1.66348 21.0888 1.50761 21.0888C1.44699 21.0888 1.36905 21.0672 1.27813 21.024C0.914416 20.8513 0.697923 20.5361 0.602666 20.1259C0.598336 20.1129 0.606996 20.0956 0.624315 20.0913H0.628645L3.20492 20.0956Z" fill="#D6E1E4"/>
<path d="M3.2038 20.0956L7.96665 20.0913C7.97531 20.0913 7.98397 20.0999 7.9883 20.1086C8.07923 20.5706 8.33902 20.8858 8.76767 21.0585C8.84561 21.0888 8.84561 21.106 8.75901 21.106H2.03906C2.28153 20.9592 2.52401 20.7822 2.76215 20.5706C2.91803 20.4281 3.06524 20.2727 3.2038 20.0956Z" fill="#B2B4B3"/>
<path d="M17.6933 21.0888C18.1263 20.9117 18.438 20.5706 18.5246 20.1215C18.529 20.1086 18.5333 20.0999 18.5463 20.0999L24.305 20.0913C24.3223 20.0913 24.3396 20.1086 24.3396 20.1259V20.1302C24.2617 20.5576 23.9326 20.9894 23.517 21.0758C23.4174 21.0974 23.1836 21.1104 22.8242 21.1104C21.0576 21.1147 19.3473 21.1147 17.6933 21.1104C17.6543 21.1104 17.6543 21.1017 17.6933 21.0888Z" fill="#B2B4B3"/>
</svg>
