<svg fill="currentColor" width="31" height="30" viewBox="0 0 31 30"
  xmlns="http://www.w3.org/2000/svg">
  <path
    d="M15.3053 9.76806C15.0942 9.43533 14.8638 9.1122 14.6815 8.76348C14.5151 8.44995 14.3071 8.20681 13.9808 8.05324C13.2866 7.72691 12.4004 8.14282 12.2308 8.94584C12.1348 9.39054 12.2884 9.76806 12.5123 10.1168C12.8355 10.6191 13.1618 11.1246 13.5457 11.582C13.888 11.9916 14.3071 12.3339 14.6879 12.7114C14.7262 12.7498 14.7646 12.8202 14.7582 12.8714C14.7006 13.4056 14.6239 13.9399 14.5791 14.4774C14.5503 14.8069 14.5695 15.1397 14.5791 15.4692C14.5791 15.5044 14.6431 15.562 14.6847 15.5684C14.979 15.6259 15.2765 15.6771 15.5773 15.7219C16.1499 15.8115 16.7226 15.8947 17.2921 15.9811C17.7208 16.045 18.1527 16.0962 18.575 16.1858C19.1253 16.3042 19.49 16.6529 19.6947 17.1712C19.9763 17.8878 20.2642 18.6045 20.5457 19.3243C20.9584 20.3801 21.3776 21.4326 21.7807 22.4916C22.1198 23.381 21.4415 24.3568 20.5425 24.4752C19.8323 24.5679 19.1381 24.136 18.8501 23.3522C18.4502 22.2645 18.0023 21.1927 17.5768 20.1145C17.452 19.7978 17.3337 19.4811 17.2025 19.1675C17.1801 19.1132 17.1129 19.0492 17.0585 19.0396C16.5242 18.95 15.9868 18.87 15.4493 18.7836C15.027 18.7164 14.6079 18.6429 14.1856 18.5757C13.6737 18.4957 13.165 18.4157 12.6531 18.3389C12.0996 18.2558 11.5526 18.1598 11.1047 17.7855C10.7751 17.5103 10.5704 17.1584 10.4232 16.7681C10.2824 16.4002 10.2376 16.0131 10.1961 15.6227C10.1193 14.8933 10.0809 14.1607 10.1129 13.4312C10.1321 12.9577 10.2025 12.4874 10.2632 12.0172C10.3912 11.0638 10.6664 10.1456 10.9799 9.24017C11.2678 8.40836 11.7797 7.74611 12.5955 7.36539C13.085 7.13825 13.6001 7.04227 14.1408 7.18623C14.5471 7.29821 14.8414 7.55095 15.0526 7.90607C15.2637 8.26119 15.3853 8.64511 15.3949 9.06101C15.3981 9.27217 15.3949 9.48012 15.3885 9.69127C15.3885 9.71047 15.3693 9.72647 15.3597 9.74566C15.3437 9.75206 15.3245 9.76166 15.3053 9.76806Z" />
  <path
    d="M4.55258 18.2139C3.26647 18.2139 1.98356 18.2043 0.697444 18.2203C0.339124 18.2235 0 17.9068 0 17.5133C0.00639857 14.9859 0.00319928 12.4584 0.00319928 9.93099C0.00319928 9.49589 0.319928 9.21755 0.710241 9.21755C3.27926 9.22075 5.85149 9.22075 8.42051 9.21436C8.81402 9.21436 9.11796 9.52469 9.11796 9.9118C9.10196 12.4552 9.11156 14.9987 9.11156 17.5421C9.11156 17.974 8.87481 18.2107 8.44291 18.2107C7.144 18.2139 5.84829 18.2139 4.55258 18.2139ZM4.53658 12.5768C4.54938 12.5288 4.55578 12.5096 4.56218 12.4904C4.78293 11.8954 2.34187 13.0567 2.56582 12.4616C2.64581 12.2537 2 13 4.99408 10.3469C2 12 5.26171 9.8862 4.83621 9.9118C7.5524 11.0617 6.04799 11.7729 6 12C5.96801 12.1536 11.1449 18.2205 6.43056 16.3032C6.19061 17.279 2.80577 13.0375 2.56582 14.0133C2.51464 14.2148 2.79525 13.0512 3 13C3.25274 12.9392 3.35285 14.17 3.60559 14.1061C3.90952 14.0293 5.18327 13.08 5.5 13C5.39442 13.4351 6.09918 16.0905 6 16.5C5.82724 17.2134 5.17596 17.2898 5 18C4.96481 18.1472 3.88163 17.9552 4 18C4.13437 18.0512 4.07909 17.5101 4.13347 17.4013C4.35422 16.9438 4.56858 16.4831 4.78293 16.0224C5.20843 15.1106 5.63394 14.1956 6.05624 13.2838C6.18101 13.0151 6.30899 12.7464 6.43056 12.4744C6.50094 12.3177 6.66956 12.5064 6.5 12.5C7.39625 13.9209 6.14582 12.1961 6.09463 12.2057C5.73951 12.2889 5.38759 12.3784 5.03247 12.4616C4.87251 12.5032 4.71574 12.5352 4.53658 12.5768Z"
  />
  <path
    d="M12.3968 26.3914C12.6176 24.8045 12.2337 23.4129 11.0211 22.3635C9.56228 21.103 7.90185 20.911 6.15504 21.7236C5.27844 22.1299 4.64178 22.8178 4.21947 23.6816C3.80037 24.5358 3.6628 25.4412 3.84836 26.3946C3.14772 26.3946 2.46947 26.3946 1.76562 26.3946C1.77522 26.2122 1.77522 26.0363 1.79762 25.8603C1.93839 24.7662 2.25831 23.7168 2.61663 22.6802C2.7574 22.2707 2.92057 21.8676 3.07413 21.4613C3.09653 21.4037 3.11572 21.3429 3.13492 21.2917C3.01335 21.2405 2.89497 21.2086 2.79579 21.1478C2.61343 21.0326 2.59104 20.831 2.58464 20.6423C2.57504 20.2808 2.57504 19.916 2.58464 19.5545C2.59424 19.129 2.7766 18.9307 3.2213 18.9339C6.50696 18.9403 9.78942 18.9403 13.0751 18.9307C13.3822 18.9307 13.6702 19.1642 13.6478 19.5001C13.619 19.9096 13.635 20.3224 13.6446 20.7319C13.6478 20.943 13.5646 21.0838 13.3886 21.1894C13.3406 21.2182 13.2926 21.2981 13.299 21.3493C13.3758 22.0532 13.4782 22.7538 13.7053 23.4257C13.8717 23.9151 14.0669 24.395 14.2588 24.8749C14.2748 24.9197 14.342 24.9517 14.3932 24.9709C14.4412 24.9869 14.4988 24.9741 14.5532 24.9741C17.0262 24.9741 19.5024 24.9741 21.9755 24.9741C22.0459 24.9741 22.1131 24.9741 22.1994 24.9741C22.1994 25.4508 22.1994 25.9211 22.1994 26.3978C18.949 26.3914 15.6793 26.3914 12.3968 26.3914Z"
  />
  <path
    d="M8.13596 21.9348C10.1483 21.9476 11.8055 23.5505 11.7959 25.6364C11.7927 26.609 11.4344 27.46 10.7562 28.1606C10.0395 28.9029 9.12773 29.2836 8.12956 29.2836C7.12178 29.2836 6.20359 28.8997 5.49335 28.1446C4.77991 27.3864 4.41199 26.481 4.45678 25.4316C4.53996 23.608 6.04043 21.9412 8.13596 21.9348ZM8.13276 24.1263C7.30094 24.0943 6.67068 24.795 6.64189 25.5308C6.6035 26.4362 7.35213 27.0857 8.10396 27.0889C8.94537 27.0921 9.59483 26.4458 9.61402 25.6332C9.63322 24.8014 8.93258 24.0847 8.13276 24.1263Z"
  />
  <path
    d="M30.1752 25.6044C30.1656 26.6634 29.7657 27.556 29.001 28.2854C28.3036 28.9541 27.4334 29.2836 26.4992 29.2836C25.5074 29.2836 24.6052 28.8997 23.8982 28.1734C23.2007 27.46 22.8296 26.5866 22.836 25.582C22.8456 23.5985 24.4677 21.8549 26.6688 21.9316C28.5243 22.002 30.1944 23.5793 30.1752 25.6044ZM26.4992 24.1264C25.6866 24.0912 25.0147 24.7982 25.0147 25.6076C25.0147 26.4234 25.6834 27.0857 26.5088 27.0889C27.3086 27.0921 27.9773 26.4106 27.9997 25.6524C28.0221 24.8046 27.315 24.0848 26.4992 24.1264Z"
  />
  <path
    d="M15.6345 6.03758C15.0619 5.9832 14.502 5.93521 13.9613 5.75925C13.1839 5.5033 12.7712 4.92103 12.576 4.15001C12.4737 3.7469 12.4193 3.33739 12.4577 2.92468C12.5152 2.31362 12.7328 1.75374 13.1103 1.26745C13.5806 0.65959 14.1917 0.262879 14.9435 0.0869181C15.9161 -0.137032 16.7927 0.0773202 17.5797 0.665988C18.2228 1.14908 18.6195 1.79853 18.7794 2.59196C18.8082 2.73272 18.7538 2.74552 18.6483 2.75512C18.1812 2.79671 17.7173 2.86709 17.2758 3.04305C17.1158 3.10704 16.959 3.19662 16.8151 3.2958C16.4824 3.52935 16.4952 3.88127 16.5335 4.23319C16.5783 4.6299 16.6327 5.02661 16.6743 5.42332C16.6839 5.5097 16.6679 5.60888 16.6295 5.68566C16.5879 5.76244 16.5143 5.85202 16.4376 5.87122C16.1752 5.9416 15.9033 5.98639 15.6345 6.03758Z"
  />
  <path
    d="M21.4134 13.3928C21.5222 13.7 21.631 14.0071 21.7366 14.3142C21.9381 14.8965 22.1301 15.4852 22.3412 16.0642C22.37 16.1474 22.4564 16.2306 22.5364 16.269C23.0995 16.5281 23.6113 16.8576 24.0848 17.2576C24.4655 17.5775 24.7823 17.9486 25.0638 18.3581C25.3869 18.8252 25.6045 19.3403 25.7964 19.8682C25.8316 19.9673 25.87 20.0665 25.9052 20.1657C26.1132 20.1817 26.3211 20.2009 26.5259 20.2137C27.1401 20.2521 27.7192 20.412 28.2759 20.6744C28.8166 20.9271 29.2901 21.2759 29.69 21.7174C30.0163 22.0693 30.2978 22.4596 30.4898 22.9075C30.541 23.0259 30.4962 23.1314 30.3842 23.189C30.2818 23.2434 30.1859 23.2818 30.0867 23.1378C29.4692 22.2516 28.6374 21.6502 27.588 21.3942C27.1881 21.2951 26.7626 21.2439 26.3499 21.2567C25.3773 21.2919 24.4975 21.6214 23.7393 22.242C23.6049 22.354 23.4802 22.4756 23.3362 22.6036C23.269 22.4116 23.2018 22.2324 23.1378 22.0501C22.8179 21.1127 22.5012 20.1753 22.1813 19.2379C21.8229 18.1853 21.4646 17.1328 21.1031 16.0834C20.9367 15.6003 20.7576 15.1172 20.5944 14.6309C20.5496 14.503 20.492 14.4806 20.3737 14.5254C20.0409 14.6597 19.7018 14.7845 19.3691 14.9189C19.0428 15.0469 18.7132 14.9157 18.5821 14.5926C18.5629 14.5414 18.5597 14.4838 18.5469 14.4038C18.726 14.4198 18.8828 14.4454 19.0396 14.4486C19.4651 14.455 19.897 14.503 20.3161 14.4454C20.9047 14.3718 21.2535 13.9815 21.4134 13.3928Z"
  />
  <path
    d="M19.8572 14.1799C18.4463 14.1671 17.1986 13.8855 16.0437 13.2393C15.5382 12.9545 15.0679 12.625 14.6328 12.2379C13.8074 11.5085 13.1515 10.6543 12.6332 9.68488C12.3165 9.08981 12.6748 8.40516 13.2859 8.26759C13.6794 8.17801 14.1305 8.37957 14.3353 8.78268C14.6168 9.33615 14.9783 9.82564 15.391 10.2863C15.9253 10.8814 16.5492 11.3581 17.2626 11.71C17.7841 11.966 18.3376 12.1323 18.9198 12.1835C19.3293 12.2187 19.7452 12.2347 20.158 12.2475C20.5547 12.2571 20.945 12.5514 21.0474 12.9417C21.1593 13.364 20.977 13.8087 20.6282 14.0231C20.3531 14.1831 20.0556 14.1511 19.8572 14.1799Z"
  />
  <path
    d="M25.3265 14.0869C25.3457 14.5604 25.2849 15.0307 25.1025 15.4818C25.0642 15.5746 25.013 15.6642 24.9554 15.7441C24.7954 15.9745 24.5523 15.9713 24.3187 15.9297C23.4709 15.7857 22.895 15.2259 22.7543 14.3685C22.6583 13.7958 22.8119 13.2743 23.2118 12.8328C23.5413 12.4713 23.954 12.2793 24.4307 12.2121C24.6802 12.1769 24.9074 12.3017 25.0354 12.5609C25.2721 13.0408 25.3425 13.5526 25.3265 14.0869Z"
  />
  <path
    d="M18.4911 3.06543C19.099 4.16918 18.7855 5.66325 17.7361 6.47586C16.386 7.52203 14.7256 7.04214 13.9609 6.10475C14.2937 6.15914 14.6328 6.22632 14.9751 6.26791C15.5094 6.3319 16.0405 6.36709 16.562 6.16873C16.7667 6.09195 16.8659 5.96078 16.9267 5.76882C17.0418 5.4105 16.9619 5.05858 16.9107 4.70346C16.8723 4.43152 16.8179 4.15958 16.8179 3.88765C16.8179 3.61571 17.0354 3.45894 17.2658 3.38536C17.6401 3.26379 18.0272 3.187 18.4079 3.08782C18.4335 3.08463 18.4559 3.07503 18.4911 3.06543Z"
  />
</svg>