<svg width="31" height="32" viewBox="0 0 31 32" fill="none" xmlns="http://www.w3.org/2000/svg">
  <path
    d="M30.4 0H26.24C25.4933 0 24.8889 0.497778 24.6756 1.17333L15.9289 0.711111C12.6578 0.533333 11.3778 1.03111 9.03111 3.37778L6.82667 5.54667H3.05778C1.38667 5.54667 0 6.93333 0 8.60444C0 9.95556 0.888889 11.0933 2.09778 11.52L0.533333 16.5333C0.0355556 18.1333 0 19.0578 0 20.8V29.7244C0 30.9689 1.03111 32 2.27556 32H18.56H21.44C22.6489 32 23.6089 31.04 23.6089 29.8311V20.16C23.6089 18.4178 23.4311 17.7422 22.9333 16.1067L21.3689 11.0222V10.7022C21.4044 10.6667 21.44 10.6311 21.5111 10.5956C22.5422 9.67111 22.9689 9.38667 23.6444 9.31556L24.64 9.20889V9.38667C24.64 10.2756 25.3511 11.0222 26.2756 11.0222H30.4C30.6844 11.0222 30.9333 10.7733 30.9333 10.4889V0.533333C30.9333 0.248889 30.72 0 30.4 0ZM9.84889 19.9467C9.84889 21.2978 8.88889 22.4 7.60889 22.6489V29.0844C7.60889 29.3689 7.36 29.6178 7.07556 29.6178C6.79111 29.6178 6.54222 29.3689 6.54222 29.0844V22.6844C5.26222 22.4356 4.30222 21.2978 4.30222 19.9822V16.5689C4.30222 16.2844 4.55111 16.0356 4.83556 16.0356C5.12 16.0356 5.36889 16.2844 5.36889 16.5689V18.9156H6.54222V16.5689C6.54222 16.2844 6.79111 16.0356 7.07556 16.0356C7.36 16.0356 7.60889 16.2844 7.60889 16.5689V18.9156H8.78222V16.5689C8.78222 16.2844 9.03111 16.0356 9.31556 16.0356C9.6 16.0356 9.84889 16.2844 9.84889 16.5689V19.9467ZM10.9156 10.5956H3.05778C1.95556 10.5956 1.06667 9.70667 1.06667 8.60444C1.06667 7.50222 1.95556 6.61333 3.05778 6.61333H14.0444C14.5422 6.61333 14.8622 6.89778 14.9333 7.21778C15.04 7.53778 14.8978 7.82222 14.5422 8.03556L11.5556 9.95556C11.3067 10.1333 11.0933 10.3467 10.9156 10.5956ZM15.7867 25.2089C15.7867 25.4933 15.5378 25.7422 15.2533 25.7422H12.8V29.12C12.8 29.4044 12.5511 29.6533 12.2667 29.6533C11.9822 29.6533 11.7333 29.4044 11.7333 29.12V16.5333C11.7333 16.2489 11.9822 16 12.2667 16C13.6889 16 15.7867 17.4933 15.7867 19.8756V25.2089ZM21.9378 16.4267C22.4 17.92 22.5778 18.5244 22.5778 20.16V29.7956C22.5778 30.4 22.08 30.8978 21.4756 30.8978H19.1289V20.7644C19.1289 19.0933 19.1644 18.2756 19.6267 16.8178L20.8356 12.8711L21.9378 16.4267ZM24.6044 8.14222L23.5022 8.24889C22.4711 8.35556 21.8311 8.81778 20.7644 9.77778C19.5556 10.9156 17.5644 11.3422 15.5022 11.8044C14.8622 11.9467 14.2222 12.0889 13.5822 12.2667C12.6578 12.5156 11.9467 12.3733 11.7333 11.9111C11.5911 11.5911 11.6978 11.0933 12.16 10.8089L15.1467 8.88889C15.8933 8.42667 16.2133 7.64444 15.9644 6.86222C15.7156 6.04444 14.9689 5.51111 14.0444 5.51111H8.32L9.74222 4.08889C11.8756 1.95556 12.9067 1.56444 15.8222 1.74222L24.5689 2.24V8.14222H24.6044Z"
    fill="white" />
</svg>