<svg
	width="14"
	height="14"
	fill="none"
	viewBox="0 0 14 14"
	xmlns="http://www.w3.org/2000/svg"
>
	<path
		d="M4.87216 3.50012L4.76278 8.29274H3.69555L3.58949 3.50012H4.87216ZM4.22917 10.3609C4.02809 10.3609 3.85574 10.2902 3.71212 10.1488C3.57071 10.0074 3.5 9.83503 3.5 9.63175C3.5 9.43289 3.57071 9.26275 3.71212 9.12133C3.85574 8.97992 4.02809 8.90921 4.22917 8.90921C4.42582 8.90921 4.59596 8.97992 4.73958 9.12133C4.88542 9.26275 4.95833 9.43289 4.95833 9.63175C4.95833 9.76654 4.92408 9.88917 4.85559 9.99965C4.7893 10.1101 4.70092 10.1985 4.59044 10.2648C4.48217 10.3289 4.36174 10.3609 4.22917 10.3609Z"
		fill="currentColor"
	></path>
	<path
		d="M7.47237 3.50012L7.36299 8.29274H6.29576L6.1897 3.50012H7.47237ZM6.82937 10.3609C6.6283 10.3609 6.45595 10.2902 6.31233 10.1488C6.17092 10.0074 6.10021 9.83503 6.10021 9.63175C6.10021 9.43289 6.17092 9.26275 6.31233 9.12133C6.45595 8.97992 6.6283 8.90921 6.82937 8.90921C7.02603 8.90921 7.19617 8.97992 7.33979 9.12133C7.48562 9.26275 7.55854 9.43289 7.55854 9.63175C7.55854 9.76654 7.52429 9.88917 7.4558 9.99965C7.38951 10.1101 7.30112 10.1985 7.19064 10.2648C7.08237 10.3289 6.96195 10.3609 6.82937 10.3609Z"
		fill="currentColor"
	></path>
	<path
		d="M10.0726 3.50012L9.9632 8.29274H8.89597L8.78991 3.50012H10.0726ZM9.42958 10.3609C9.22851 10.3609 9.05616 10.2902 8.91254 10.1488C8.77112 10.0074 8.70042 9.83503 8.70042 9.63175C8.70042 9.43289 8.77112 9.26275 8.91254 9.12133C9.05616 8.97992 9.22851 8.90921 9.42958 8.90921C9.62624 8.90921 9.79638 8.97992 9.94 9.12133C10.0858 9.26275 10.1587 9.43289 10.1587 9.63175C10.1587 9.76654 10.1245 9.88917 10.056 9.99965C9.98972 10.1101 9.90133 10.1985 9.79085 10.2648C9.68258 10.3289 9.56216 10.3609 9.42958 10.3609Z"
		fill="currentColor"
	></path>
</svg>
